<svg width="48" height="48" viewBox="0 0 48 48" fill="none" xmlns="http://www.w3.org/2000/svg">
  <rect width="48" height="48" rx="8" fill="#4361EE"/>
  <path d="M24 12C17.373 12 12 17.373 12 24C12 30.627 17.373 36 24 36C30.627 36 36 30.627 36 24C36 17.373 30.627 12 24 12ZM24 16C26.21 16 28 17.79 28 20C28 22.21 26.21 24 24 24C21.79 24 20 22.21 20 20C20 17.79 21.79 16 24 16ZM24 34.4C21 34.4 18.3 33.03 16.5 30.86C16.53 27.43 23 25.5 24 25.5C25 25.5 31.47 27.43 31.5 30.86C29.7 33.03 27 34.4 24 34.4Z" fill="white"/>
</svg>
