<svg width="120" height="120" viewBox="0 0 120 120" fill="none" xmlns="http://www.w3.org/2000/svg">
  <rect width="120" height="120" rx="60" fill="#4361EE" fill-opacity="0.1"/>
  <path d="M60 30C46.75 30 36 40.75 36 54C36 67.25 46.75 78 60 78C73.25 78 84 67.25 84 54C84 40.75 73.25 30 60 30ZM60 42C65.52 42 70 46.48 70 52C70 57.52 65.52 62 60 62C54.48 62 50 57.52 50 52C50 46.48 54.48 42 60 42ZM60 74C53 74 46.8 71.08 42.8 66.2C42.88 60.08 54.8 56.8 60 56.8C65.2 56.8 77.12 60.08 77.2 66.2C73.2 71.08 67 74 60 74Z" fill="#4361EE"/>
</svg>
